<svg xmlns="http://www.w3.org/2000/svg" width="800" height="800" viewBox="0 0 800 800" role="img" aria-label="夜航信号，代码自绘封面">
<defs><radialGradient id="sky"><stop stop-color="#61518d"/><stop offset="1" stop-color="#17142d"/></radialGradient>
<filter id="grain"><feTurbulence baseFrequency=".7" numOctaves="3" seed="9" stitchTiles="stitch"/><feColorMatrix type="saturate" values="0"/><feComponentTransfer><feFuncA type="linear" slope=".15"/></feComponentTransfer><feBlend in="SourceGraphic" mode="soft-light"/></filter></defs>
<rect width="800" height="800" fill="url(#sky)"/><circle cx="453" cy="567" r="1.8" fill="#e2c0fc" opacity="0.47"/><circle cx="154" cy="215" r="1.2" fill="#e2c0fc" opacity="0.25"/><circle cx="64" cy="265" r="0.8" fill="#e2c0fc" opacity="0.41"/><circle cx="137" cy="195" r="1.8" fill="#e2c0fc" opacity="0.46"/><circle cx="345" cy="684" r="1.2" fill="#e2c0fc" opacity="0.42"/><circle cx="742" cy="368" r="1.2" fill="#e2c0fc" opacity="0.18"/><circle cx="324" cy="667" r="0.8" fill="#e2c0fc" opacity="0.20"/><circle cx="106" cy="637" r="0.8" fill="#e2c0fc" opacity="0.27"/><circle cx="357" cy="145" r="1.8" fill="#e2c0fc" opacity="0.52"/><circle cx="331" cy="70" r="1.2" fill="#e2c0fc" opacity="0.32"/><circle cx="523" cy="522" r="0.8" fill="#e2c0fc" opacity="0.23"/><circle cx="299" cy="288" r="0.8" fill="#e2c0fc" opacity="0.17"/><circle cx="731" cy="481" r="1.8" fill="#e2c0fc" opacity="0.17"/><circle cx="746" cy="704" r="1.2" fill="#e2c0fc" opacity="0.32"/><circle cx="517" cy="680" r="1.2" fill="#e2c0fc" opacity="0.42"/><circle cx="588" cy="189" r="0.8" fill="#e2c0fc" opacity="0.37"/><circle cx="735" cy="389" r="1.8" fill="#e2c0fc" opacity="0.52"/><circle cx="79" cy="319" r="0.8" fill="#e2c0fc" opacity="0.15"/><circle cx="49" cy="628" r="1.8" fill="#e2c0fc" opacity="0.44"/><circle cx="591" cy="323" r="1.2" fill="#e2c0fc" opacity="0.40"/><circle cx="449" cy="149" r="1.2" fill="#e2c0fc" opacity="0.30"/><circle cx="264" cy="656" r="1.8" fill="#e2c0fc" opacity="0.18"/><circle cx="478" cy="84" r="1.8" fill="#e2c0fc" opacity="0.43"/><circle cx="160" cy="181" r="0.8" fill="#e2c0fc" opacity="0.57"/><circle cx="40" cy="669" r="1.8" fill="#e2c0fc" opacity="0.28"/><circle cx="695" cy="99" r="1.2" fill="#e2c0fc" opacity="0.18"/><circle cx="480" cy="315" r="0.8" fill="#e2c0fc" opacity="0.46"/><circle cx="676" cy="232" r="0.8" fill="#e2c0fc" opacity="0.28"/><circle cx="303" cy="101" r="1.8" fill="#e2c0fc" opacity="0.49"/><circle cx="649" cy="372" r="1.8" fill="#e2c0fc" opacity="0.51"/><circle cx="101" cy="325" r="1.2" fill="#e2c0fc" opacity="0.28"/><circle cx="447" cy="344" r="1.8" fill="#e2c0fc" opacity="0.55"/><circle cx="495" cy="109" r="1.2" fill="#e2c0fc" opacity="0.26"/><circle cx="170" cy="708" r="0.8" fill="#e2c0fc" opacity="0.18"/><circle cx="487" cy="440" r="1.8" fill="#e2c0fc" opacity="0.31"/><circle cx="489" cy="121" r="1.2" fill="#e2c0fc" opacity="0.56"/><circle cx="171" cy="320" r="1.8" fill="#e2c0fc" opacity="0.39"/><circle cx="405" cy="283" r="0.8" fill="#e2c0fc" opacity="0.47"/><circle cx="608" cy="534" r="0.8" fill="#e2c0fc" opacity="0.38"/><circle cx="457" cy="177" r="1.2" fill="#e2c0fc" opacity="0.26"/><circle cx="272" cy="646" r="1.2" fill="#e2c0fc" opacity="0.39"/><circle cx="361" cy="368" r="1.2" fill="#e2c0fc" opacity="0.22"/><circle cx="39" cy="115" r="1.2" fill="#e2c0fc" opacity="0.57"/><circle cx="734" cy="447" r="1.2" fill="#e2c0fc" opacity="0.41"/><circle cx="682" cy="554" r="1.2" fill="#e2c0fc" opacity="0.25"/><circle cx="195" cy="186" r="1.8" fill="#e2c0fc" opacity="0.60"/><circle cx="376" cy="353" r="0.8" fill="#e2c0fc" opacity="0.39"/><circle cx="251" cy="657" r="0.8" fill="#e2c0fc" opacity="0.22"/><circle cx="591" cy="51" r="0.8" fill="#e2c0fc" opacity="0.20"/><circle cx="435" cy="581" r="1.8" fill="#e2c0fc" opacity="0.17"/><circle cx="350" cy="447" r="0.8" fill="#e2c0fc" opacity="0.28"/><circle cx="682" cy="200" r="1.8" fill="#e2c0fc" opacity="0.43"/><circle cx="103" cy="364" r="1.8" fill="#e2c0fc" opacity="0.42"/><circle cx="361" cy="703" r="1.8" fill="#e2c0fc" opacity="0.52"/><circle cx="51" cy="70" r="0.8" fill="#e2c0fc" opacity="0.20"/><circle cx="51" cy="204" r="0.8" fill="#e2c0fc" opacity="0.23"/><circle cx="153" cy="196" r="1.2" fill="#e2c0fc" opacity="0.46"/><circle cx="314" cy="421" r="1.2" fill="#e2c0fc" opacity="0.26"/><circle cx="316" cy="187" r="1.2" fill="#e2c0fc" opacity="0.27"/><circle cx="449" cy="202" r="1.8" fill="#e2c0fc" opacity="0.58"/><circle cx="526" cy="218" r="1.2" fill="#e2c0fc" opacity="0.35"/><circle cx="534" cy="518" r="1.2" fill="#e2c0fc" opacity="0.51"/><circle cx="740" cy="626" r="1.2" fill="#e2c0fc" opacity="0.37"/><circle cx="421" cy="527" r="1.2" fill="#e2c0fc" opacity="0.20"/><circle cx="741" cy="320" r="1.8" fill="#e2c0fc" opacity="0.24"/><circle cx="400" cy="365" r="225" fill="none" stroke="#e2c0fc" stroke-width="2" opacity=".55"/><circle cx="400" cy="365" r="167" fill="none" stroke="#e2c0fc" stroke-width="1" opacity=".25"/><ellipse cx="400" cy="365" rx="300" ry="85" transform="rotate(-28 400 365)" fill="none" stroke="#e2c0fc" stroke-width="3" opacity=".7"/><circle cx="400" cy="365" r="80" fill="#61518d"/><circle cx="644" cy="237" r="13" fill="#e2c0fc"/>
<rect width="800" height="800" fill="transparent" filter="url(#grain)"/>
<path d="M50 52 H90 M50 52 V92 M750 52 H710 M750 52 V92 M50 748 H90 M50 748 V708 M750 748 H710 M750 748 V708" stroke="#e2c0fc" opacity=".4" fill="none"/>
<text x="58" y="105" fill="#e2c0fc" font-family="sans-serif" font-size="15" letter-spacing="5">SIGNAL / 03</text>
<text x="58" y="706" fill="#e2c0fc" font-family="sans-serif" font-size="30" letter-spacing="8">夜航信号</text>
</svg>