<svg xmlns="http://www.w3.org/2000/svg" width="800" height="800" viewBox="0 0 800 800" role="img" aria-label="橘色回声，代码自绘封面">
<defs><radialGradient id="sky"><stop stop-color="#b36945"/><stop offset="1" stop-color="#351f22"/></radialGradient>
<filter id="grain"><feTurbulence baseFrequency=".7" numOctaves="3" seed="8" stitchTiles="stitch"/><feColorMatrix type="saturate" values="0"/><feComponentTransfer><feFuncA type="linear" slope=".15"/></feComponentTransfer><feBlend in="SourceGraphic" mode="soft-light"/></filter></defs>
<rect width="800" height="800" fill="url(#sky)"/><circle cx="74" cy="327" r="1.8" fill="#f3c89a" opacity="0.49"/><circle cx="508" cy="413" r="1.8" fill="#f3c89a" opacity="0.46"/><circle cx="133" cy="499" r="1.8" fill="#f3c89a" opacity="0.37"/><circle cx="54" cy="561" r="1.2" fill="#f3c89a" opacity="0.41"/><circle cx="674" cy="595" r="1.2" fill="#f3c89a" opacity="0.33"/><circle cx="94" cy="144" r="0.8" fill="#f3c89a" opacity="0.32"/><circle cx="133" cy="199" r="1.8" fill="#f3c89a" opacity="0.53"/><circle cx="166" cy="431" r="1.8" fill="#f3c89a" opacity="0.59"/><circle cx="313" cy="623" r="0.8" fill="#f3c89a" opacity="0.32"/><circle cx="85" cy="628" r="0.8" fill="#f3c89a" opacity="0.23"/><circle cx="97" cy="204" r="1.2" fill="#f3c89a" opacity="0.27"/><circle cx="113" cy="569" r="1.8" fill="#f3c89a" opacity="0.20"/><circle cx="633" cy="704" r="1.8" fill="#f3c89a" opacity="0.46"/><circle cx="131" cy="672" r="1.2" fill="#f3c89a" opacity="0.50"/><circle cx="374" cy="373" r="1.8" fill="#f3c89a" opacity="0.45"/><circle cx="484" cy="205" r="0.8" fill="#f3c89a" opacity="0.53"/><circle cx="362" cy="86" r="1.8" fill="#f3c89a" opacity="0.27"/><circle cx="225" cy="653" r="0.8" fill="#f3c89a" opacity="0.59"/><circle cx="600" cy="151" r="1.2" fill="#f3c89a" opacity="0.37"/><circle cx="405" cy="479" r="0.8" fill="#f3c89a" opacity="0.36"/><circle cx="459" cy="651" r="0.8" fill="#f3c89a" opacity="0.31"/><circle cx="695" cy="123" r="1.8" fill="#f3c89a" opacity="0.48"/><circle cx="622" cy="349" r="0.8" fill="#f3c89a" opacity="0.46"/><circle cx="469" cy="488" r="1.8" fill="#f3c89a" opacity="0.17"/><circle cx="37" cy="143" r="0.8" fill="#f3c89a" opacity="0.21"/><circle cx="52" cy="380" r="0.8" fill="#f3c89a" opacity="0.47"/><circle cx="545" cy="300" r="1.8" fill="#f3c89a" opacity="0.36"/><circle cx="383" cy="429" r="0.8" fill="#f3c89a" opacity="0.47"/><circle cx="130" cy="246" r="1.8" fill="#f3c89a" opacity="0.33"/><circle cx="736" cy="624" r="1.2" fill="#f3c89a" opacity="0.27"/><circle cx="635" cy="453" r="1.2" fill="#f3c89a" opacity="0.33"/><circle cx="88" cy="225" r="1.8" fill="#f3c89a" opacity="0.23"/><circle cx="227" cy="87" r="1.8" fill="#f3c89a" opacity="0.26"/><circle cx="342" cy="262" r="1.2" fill="#f3c89a" opacity="0.23"/><circle cx="256" cy="427" r="1.2" fill="#f3c89a" opacity="0.25"/><circle cx="504" cy="548" r="0.8" fill="#f3c89a" opacity="0.19"/><circle cx="59" cy="593" r="1.8" fill="#f3c89a" opacity="0.53"/><circle cx="550" cy="552" r="0.8" fill="#f3c89a" opacity="0.41"/><circle cx="304" cy="259" r="0.8" fill="#f3c89a" opacity="0.35"/><circle cx="435" cy="193" r="0.8" fill="#f3c89a" opacity="0.15"/><circle cx="751" cy="259" r="0.8" fill="#f3c89a" opacity="0.40"/><circle cx="460" cy="240" r="1.2" fill="#f3c89a" opacity="0.34"/><circle cx="50" cy="226" r="1.2" fill="#f3c89a" opacity="0.20"/><circle cx="355" cy="302" r="1.8" fill="#f3c89a" opacity="0.21"/><circle cx="624" cy="190" r="1.8" fill="#f3c89a" opacity="0.26"/><circle cx="277" cy="79" r="0.8" fill="#f3c89a" opacity="0.27"/><circle cx="751" cy="314" r="1.8" fill="#f3c89a" opacity="0.51"/><circle cx="528" cy="382" r="0.8" fill="#f3c89a" opacity="0.29"/><circle cx="45" cy="247" r="1.2" fill="#f3c89a" opacity="0.59"/><circle cx="188" cy="327" r="1.8" fill="#f3c89a" opacity="0.45"/><circle cx="341" cy="527" r="1.2" fill="#f3c89a" opacity="0.29"/><circle cx="596" cy="533" r="1.8" fill="#f3c89a" opacity="0.42"/><circle cx="479" cy="565" r="1.8" fill="#f3c89a" opacity="0.18"/><circle cx="663" cy="689" r="1.8" fill="#f3c89a" opacity="0.52"/><circle cx="655" cy="60" r="1.8" fill="#f3c89a" opacity="0.20"/><circle cx="688" cy="125" r="1.8" fill="#f3c89a" opacity="0.25"/><circle cx="237" cy="660" r="1.8" fill="#f3c89a" opacity="0.51"/><circle cx="96" cy="297" r="0.8" fill="#f3c89a" opacity="0.37"/><circle cx="508" cy="464" r="1.2" fill="#f3c89a" opacity="0.18"/><circle cx="504" cy="488" r="1.8" fill="#f3c89a" opacity="0.27"/><circle cx="177" cy="152" r="1.2" fill="#f3c89a" opacity="0.31"/><circle cx="408" cy="138" r="1.2" fill="#f3c89a" opacity="0.46"/><circle cx="493" cy="369" r="1.2" fill="#f3c89a" opacity="0.53"/><circle cx="250" cy="277" r="1.2" fill="#f3c89a" opacity="0.23"/><circle cx="343" cy="479" r="0.8" fill="#f3c89a" opacity="0.52"/><circle cx="400" cy="365" r="205" fill="#f3c89a" opacity=".9"/><path d="M0 480 Q240 390 460 530 T800 460 V800 H0Z" fill="#b36945"/><path d="M0 575 Q220 490 430 610 T800 565 V800 H0Z" fill="#351f22" opacity=".75"/><path d="M270 695 L380 502 L408 505 L334 695Z" fill="#f3c89a" opacity=".16"/>
<rect width="800" height="800" fill="transparent" filter="url(#grain)"/>
<path d="M50 52 H90 M50 52 V92 M750 52 H710 M750 52 V92 M50 748 H90 M50 748 V708 M750 748 H710 M750 748 V708" stroke="#f3c89a" opacity=".4" fill="none"/>
<text x="58" y="105" fill="#f3c89a" font-family="sans-serif" font-size="15" letter-spacing="5">ECHO / 02</text>
<text x="58" y="706" fill="#f3c89a" font-family="sans-serif" font-size="30" letter-spacing="8">橘色回声</text>
</svg>